%TF.GenerationSoftware,KiCad,Pcbnew,7.0.9*%
%TF.CreationDate,2023-12-19T02:47:06+01:00*%
%TF.ProjectId,biosensorbox,62696f73-656e-4736-9f72-626f782e6b69,rev?*%
%TF.SameCoordinates,Original*%
%TF.FileFunction,Legend,Top*%
%TF.FilePolarity,Positive*%
%FSLAX46Y46*%
G04 Gerber Fmt 4.6, Leading zero omitted, Abs format (unit mm)*
G04 Created by KiCad (PCBNEW 7.0.9) date 2023-12-19 02:47:06*
%MOMM*%
%LPD*%
G01*
G04 APERTURE LIST*
G04 Aperture macros list*
%AMRoundRect*
0 Rectangle with rounded corners*
0 $1 Rounding radius*
0 $2 $3 $4 $5 $6 $7 $8 $9 X,Y pos of 4 corners*
0 Add a 4 corners polygon primitive as box body*
4,1,4,$2,$3,$4,$5,$6,$7,$8,$9,$2,$3,0*
0 Add four circle primitives for the rounded corners*
1,1,$1+$1,$2,$3*
1,1,$1+$1,$4,$5*
1,1,$1+$1,$6,$7*
1,1,$1+$1,$8,$9*
0 Add four rect primitives between the rounded corners*
20,1,$1+$1,$2,$3,$4,$5,0*
20,1,$1+$1,$4,$5,$6,$7,0*
20,1,$1+$1,$6,$7,$8,$9,0*
20,1,$1+$1,$8,$9,$2,$3,0*%
G04 Aperture macros list end*
%ADD10C,0.300000*%
%ADD11C,0.150000*%
%ADD12C,0.120000*%
%ADD13RoundRect,0.225000X-0.250000X0.225000X-0.250000X-0.225000X0.250000X-0.225000X0.250000X0.225000X0*%
%ADD14RoundRect,0.140000X-0.140000X-0.170000X0.140000X-0.170000X0.140000X0.170000X-0.140000X0.170000X0*%
%ADD15RoundRect,0.225000X-0.225000X-0.250000X0.225000X-0.250000X0.225000X0.250000X-0.225000X0.250000X0*%
%ADD16RoundRect,0.200000X0.200000X0.275000X-0.200000X0.275000X-0.200000X-0.275000X0.200000X-0.275000X0*%
%ADD17RoundRect,0.250000X-0.650000X0.325000X-0.650000X-0.325000X0.650000X-0.325000X0.650000X0.325000X0*%
%ADD18RoundRect,0.200000X-0.200000X-0.275000X0.200000X-0.275000X0.200000X0.275000X-0.200000X0.275000X0*%
%ADD19RoundRect,0.250000X-0.475000X0.250000X-0.475000X-0.250000X0.475000X-0.250000X0.475000X0.250000X0*%
%ADD20RoundRect,0.150000X0.150000X-0.512500X0.150000X0.512500X-0.150000X0.512500X-0.150000X-0.512500X0*%
%ADD21R,2.000000X1.500000*%
%ADD22R,2.000000X3.800000*%
%ADD23R,1.700000X1.700000*%
%ADD24O,1.700000X1.700000*%
%ADD25C,0.900000*%
%ADD26R,2.500000X0.500000*%
%ADD27R,2.500000X2.000000*%
%ADD28RoundRect,0.250000X-0.450000X0.262500X-0.450000X-0.262500X0.450000X-0.262500X0.450000X0.262500X0*%
%ADD29RoundRect,0.075000X-0.350000X-0.075000X0.350000X-0.075000X0.350000X0.075000X-0.350000X0.075000X0*%
%ADD30RoundRect,0.075000X0.075000X-0.350000X0.075000X0.350000X-0.075000X0.350000X-0.075000X-0.350000X0*%
%ADD31R,1.000000X0.750000*%
%ADD32RoundRect,0.225000X0.225000X0.250000X-0.225000X0.250000X-0.225000X-0.250000X0.225000X-0.250000X0*%
%ADD33RoundRect,0.250000X-0.262500X-0.450000X0.262500X-0.450000X0.262500X0.450000X-0.262500X0.450000X0*%
%ADD34RoundRect,0.250000X-0.425000X0.450000X-0.425000X-0.450000X0.425000X-0.450000X0.425000X0.450000X0*%
%ADD35R,1.500000X0.900000*%
%ADD36R,0.900000X1.500000*%
%ADD37R,0.900000X0.900000*%
%ADD38RoundRect,0.200000X-0.275000X0.200000X-0.275000X-0.200000X0.275000X-0.200000X0.275000X0.200000X0*%
%ADD39RoundRect,0.250000X-0.250000X-0.475000X0.250000X-0.475000X0.250000X0.475000X-0.250000X0.475000X0*%
%ADD40RoundRect,0.250000X-0.450000X-0.425000X0.450000X-0.425000X0.450000X0.425000X-0.450000X0.425000X0*%
%ADD41RoundRect,0.225000X0.250000X-0.225000X0.250000X0.225000X-0.250000X0.225000X-0.250000X-0.225000X0*%
%ADD42R,0.750000X1.000000*%
G04 APERTURE END LIST*
D10*
X129574510Y-64329400D02*
X130717368Y-64329400D01*
X130145939Y-64900828D02*
X130145939Y-63757971D01*
X122754510Y-73859400D02*
X123897368Y-73859400D01*
X123325939Y-74430828D02*
X123325939Y-73287971D01*
D11*
X140014999Y-78989580D02*
X139979285Y-79037200D01*
X139979285Y-79037200D02*
X139872142Y-79084819D01*
X139872142Y-79084819D02*
X139800714Y-79084819D01*
X139800714Y-79084819D02*
X139693571Y-79037200D01*
X139693571Y-79037200D02*
X139622142Y-78941961D01*
X139622142Y-78941961D02*
X139586428Y-78846723D01*
X139586428Y-78846723D02*
X139550714Y-78656247D01*
X139550714Y-78656247D02*
X139550714Y-78513390D01*
X139550714Y-78513390D02*
X139586428Y-78322914D01*
X139586428Y-78322914D02*
X139622142Y-78227676D01*
X139622142Y-78227676D02*
X139693571Y-78132438D01*
X139693571Y-78132438D02*
X139800714Y-78084819D01*
X139800714Y-78084819D02*
X139872142Y-78084819D01*
X139872142Y-78084819D02*
X139979285Y-78132438D01*
X139979285Y-78132438D02*
X140014999Y-78180057D01*
X140372142Y-79084819D02*
X140514999Y-79084819D01*
X140514999Y-79084819D02*
X140586428Y-79037200D01*
X140586428Y-79037200D02*
X140622142Y-78989580D01*
X140622142Y-78989580D02*
X140693571Y-78846723D01*
X140693571Y-78846723D02*
X140729285Y-78656247D01*
X140729285Y-78656247D02*
X140729285Y-78275295D01*
X140729285Y-78275295D02*
X140693571Y-78180057D01*
X140693571Y-78180057D02*
X140657857Y-78132438D01*
X140657857Y-78132438D02*
X140586428Y-78084819D01*
X140586428Y-78084819D02*
X140443571Y-78084819D01*
X140443571Y-78084819D02*
X140372142Y-78132438D01*
X140372142Y-78132438D02*
X140336428Y-78180057D01*
X140336428Y-78180057D02*
X140300714Y-78275295D01*
X140300714Y-78275295D02*
X140300714Y-78513390D01*
X140300714Y-78513390D02*
X140336428Y-78608628D01*
X140336428Y-78608628D02*
X140372142Y-78656247D01*
X140372142Y-78656247D02*
X140443571Y-78703866D01*
X140443571Y-78703866D02*
X140586428Y-78703866D01*
X140586428Y-78703866D02*
X140657857Y-78656247D01*
X140657857Y-78656247D02*
X140693571Y-78608628D01*
X140693571Y-78608628D02*
X140729285Y-78513390D01*
X159834999Y-88279580D02*
X159799285Y-88327200D01*
X159799285Y-88327200D02*
X159692142Y-88374819D01*
X159692142Y-88374819D02*
X159620714Y-88374819D01*
X159620714Y-88374819D02*
X159513571Y-88327200D01*
X159513571Y-88327200D02*
X159442142Y-88231961D01*
X159442142Y-88231961D02*
X159406428Y-88136723D01*
X159406428Y-88136723D02*
X159370714Y-87946247D01*
X159370714Y-87946247D02*
X159370714Y-87803390D01*
X159370714Y-87803390D02*
X159406428Y-87612914D01*
X159406428Y-87612914D02*
X159442142Y-87517676D01*
X159442142Y-87517676D02*
X159513571Y-87422438D01*
X159513571Y-87422438D02*
X159620714Y-87374819D01*
X159620714Y-87374819D02*
X159692142Y-87374819D01*
X159692142Y-87374819D02*
X159799285Y-87422438D01*
X159799285Y-87422438D02*
X159834999Y-87470057D01*
X160477857Y-87708152D02*
X160477857Y-88374819D01*
X160299285Y-87327200D02*
X160120714Y-88041485D01*
X160120714Y-88041485D02*
X160584999Y-88041485D01*
X153749580Y-95072143D02*
X153797200Y-95107857D01*
X153797200Y-95107857D02*
X153844819Y-95215000D01*
X153844819Y-95215000D02*
X153844819Y-95286428D01*
X153844819Y-95286428D02*
X153797200Y-95393571D01*
X153797200Y-95393571D02*
X153701961Y-95465000D01*
X153701961Y-95465000D02*
X153606723Y-95500714D01*
X153606723Y-95500714D02*
X153416247Y-95536428D01*
X153416247Y-95536428D02*
X153273390Y-95536428D01*
X153273390Y-95536428D02*
X153082914Y-95500714D01*
X153082914Y-95500714D02*
X152987676Y-95465000D01*
X152987676Y-95465000D02*
X152892438Y-95393571D01*
X152892438Y-95393571D02*
X152844819Y-95286428D01*
X152844819Y-95286428D02*
X152844819Y-95215000D01*
X152844819Y-95215000D02*
X152892438Y-95107857D01*
X152892438Y-95107857D02*
X152940057Y-95072143D01*
X153844819Y-94357857D02*
X153844819Y-94786428D01*
X153844819Y-94572143D02*
X152844819Y-94572143D01*
X152844819Y-94572143D02*
X152987676Y-94643571D01*
X152987676Y-94643571D02*
X153082914Y-94715000D01*
X153082914Y-94715000D02*
X153130533Y-94786428D01*
X152940057Y-94072142D02*
X152892438Y-94036428D01*
X152892438Y-94036428D02*
X152844819Y-93965000D01*
X152844819Y-93965000D02*
X152844819Y-93786428D01*
X152844819Y-93786428D02*
X152892438Y-93715000D01*
X152892438Y-93715000D02*
X152940057Y-93679285D01*
X152940057Y-93679285D02*
X153035295Y-93643571D01*
X153035295Y-93643571D02*
X153130533Y-93643571D01*
X153130533Y-93643571D02*
X153273390Y-93679285D01*
X153273390Y-93679285D02*
X153844819Y-94107857D01*
X153844819Y-94107857D02*
X153844819Y-93643571D01*
X133019580Y-73562143D02*
X133067200Y-73597857D01*
X133067200Y-73597857D02*
X133114819Y-73705000D01*
X133114819Y-73705000D02*
X133114819Y-73776428D01*
X133114819Y-73776428D02*
X133067200Y-73883571D01*
X133067200Y-73883571D02*
X132971961Y-73955000D01*
X132971961Y-73955000D02*
X132876723Y-73990714D01*
X132876723Y-73990714D02*
X132686247Y-74026428D01*
X132686247Y-74026428D02*
X132543390Y-74026428D01*
X132543390Y-74026428D02*
X132352914Y-73990714D01*
X132352914Y-73990714D02*
X132257676Y-73955000D01*
X132257676Y-73955000D02*
X132162438Y-73883571D01*
X132162438Y-73883571D02*
X132114819Y-73776428D01*
X132114819Y-73776428D02*
X132114819Y-73705000D01*
X132114819Y-73705000D02*
X132162438Y-73597857D01*
X132162438Y-73597857D02*
X132210057Y-73562143D01*
X133114819Y-72847857D02*
X133114819Y-73276428D01*
X133114819Y-73062143D02*
X132114819Y-73062143D01*
X132114819Y-73062143D02*
X132257676Y-73133571D01*
X132257676Y-73133571D02*
X132352914Y-73205000D01*
X132352914Y-73205000D02*
X132400533Y-73276428D01*
X132114819Y-72383571D02*
X132114819Y-72312142D01*
X132114819Y-72312142D02*
X132162438Y-72240714D01*
X132162438Y-72240714D02*
X132210057Y-72205000D01*
X132210057Y-72205000D02*
X132305295Y-72169285D01*
X132305295Y-72169285D02*
X132495771Y-72133571D01*
X132495771Y-72133571D02*
X132733866Y-72133571D01*
X132733866Y-72133571D02*
X132924342Y-72169285D01*
X132924342Y-72169285D02*
X133019580Y-72205000D01*
X133019580Y-72205000D02*
X133067200Y-72240714D01*
X133067200Y-72240714D02*
X133114819Y-72312142D01*
X133114819Y-72312142D02*
X133114819Y-72383571D01*
X133114819Y-72383571D02*
X133067200Y-72455000D01*
X133067200Y-72455000D02*
X133019580Y-72490714D01*
X133019580Y-72490714D02*
X132924342Y-72526428D01*
X132924342Y-72526428D02*
X132733866Y-72562142D01*
X132733866Y-72562142D02*
X132495771Y-72562142D01*
X132495771Y-72562142D02*
X132305295Y-72526428D01*
X132305295Y-72526428D02*
X132210057Y-72490714D01*
X132210057Y-72490714D02*
X132162438Y-72455000D01*
X132162438Y-72455000D02*
X132114819Y-72383571D01*
X133008571Y-76464819D02*
X133008571Y-77274342D01*
X133008571Y-77274342D02*
X133044285Y-77369580D01*
X133044285Y-77369580D02*
X133080000Y-77417200D01*
X133080000Y-77417200D02*
X133151428Y-77464819D01*
X133151428Y-77464819D02*
X133294285Y-77464819D01*
X133294285Y-77464819D02*
X133365714Y-77417200D01*
X133365714Y-77417200D02*
X133401428Y-77369580D01*
X133401428Y-77369580D02*
X133437142Y-77274342D01*
X133437142Y-77274342D02*
X133437142Y-76464819D01*
X133722856Y-76464819D02*
X134187142Y-76464819D01*
X134187142Y-76464819D02*
X133937142Y-76845771D01*
X133937142Y-76845771D02*
X134044285Y-76845771D01*
X134044285Y-76845771D02*
X134115714Y-76893390D01*
X134115714Y-76893390D02*
X134151428Y-76941009D01*
X134151428Y-76941009D02*
X134187142Y-77036247D01*
X134187142Y-77036247D02*
X134187142Y-77274342D01*
X134187142Y-77274342D02*
X134151428Y-77369580D01*
X134151428Y-77369580D02*
X134115714Y-77417200D01*
X134115714Y-77417200D02*
X134044285Y-77464819D01*
X134044285Y-77464819D02*
X133829999Y-77464819D01*
X133829999Y-77464819D02*
X133758571Y-77417200D01*
X133758571Y-77417200D02*
X133722856Y-77369580D01*
X120638571Y-67954819D02*
X120638571Y-68764342D01*
X120638571Y-68764342D02*
X120674285Y-68859580D01*
X120674285Y-68859580D02*
X120710000Y-68907200D01*
X120710000Y-68907200D02*
X120781428Y-68954819D01*
X120781428Y-68954819D02*
X120924285Y-68954819D01*
X120924285Y-68954819D02*
X120995714Y-68907200D01*
X120995714Y-68907200D02*
X121031428Y-68859580D01*
X121031428Y-68859580D02*
X121067142Y-68764342D01*
X121067142Y-68764342D02*
X121067142Y-67954819D01*
X121388571Y-68050057D02*
X121424285Y-68002438D01*
X121424285Y-68002438D02*
X121495714Y-67954819D01*
X121495714Y-67954819D02*
X121674285Y-67954819D01*
X121674285Y-67954819D02*
X121745714Y-68002438D01*
X121745714Y-68002438D02*
X121781428Y-68050057D01*
X121781428Y-68050057D02*
X121817142Y-68145295D01*
X121817142Y-68145295D02*
X121817142Y-68240533D01*
X121817142Y-68240533D02*
X121781428Y-68383390D01*
X121781428Y-68383390D02*
X121352856Y-68954819D01*
X121352856Y-68954819D02*
X121817142Y-68954819D01*
X111390000Y-91094819D02*
X111390000Y-91809104D01*
X111390000Y-91809104D02*
X111354285Y-91951961D01*
X111354285Y-91951961D02*
X111282857Y-92047200D01*
X111282857Y-92047200D02*
X111175714Y-92094819D01*
X111175714Y-92094819D02*
X111104285Y-92094819D01*
X111711429Y-91190057D02*
X111747143Y-91142438D01*
X111747143Y-91142438D02*
X111818572Y-91094819D01*
X111818572Y-91094819D02*
X111997143Y-91094819D01*
X111997143Y-91094819D02*
X112068572Y-91142438D01*
X112068572Y-91142438D02*
X112104286Y-91190057D01*
X112104286Y-91190057D02*
X112140000Y-91285295D01*
X112140000Y-91285295D02*
X112140000Y-91380533D01*
X112140000Y-91380533D02*
X112104286Y-91523390D01*
X112104286Y-91523390D02*
X111675714Y-92094819D01*
X111675714Y-92094819D02*
X112140000Y-92094819D01*
X126870000Y-74274819D02*
X126870000Y-74989104D01*
X126870000Y-74989104D02*
X126834285Y-75131961D01*
X126834285Y-75131961D02*
X126762857Y-75227200D01*
X126762857Y-75227200D02*
X126655714Y-75274819D01*
X126655714Y-75274819D02*
X126584285Y-75274819D01*
X127620000Y-75274819D02*
X127191429Y-75274819D01*
X127405714Y-75274819D02*
X127405714Y-74274819D01*
X127405714Y-74274819D02*
X127334286Y-74417676D01*
X127334286Y-74417676D02*
X127262857Y-74512914D01*
X127262857Y-74512914D02*
X127191429Y-74560533D01*
X139701999Y-83511580D02*
X139666285Y-83559200D01*
X139666285Y-83559200D02*
X139559142Y-83606819D01*
X139559142Y-83606819D02*
X139487714Y-83606819D01*
X139487714Y-83606819D02*
X139380571Y-83559200D01*
X139380571Y-83559200D02*
X139309142Y-83463961D01*
X139309142Y-83463961D02*
X139273428Y-83368723D01*
X139273428Y-83368723D02*
X139237714Y-83178247D01*
X139237714Y-83178247D02*
X139237714Y-83035390D01*
X139237714Y-83035390D02*
X139273428Y-82844914D01*
X139273428Y-82844914D02*
X139309142Y-82749676D01*
X139309142Y-82749676D02*
X139380571Y-82654438D01*
X139380571Y-82654438D02*
X139487714Y-82606819D01*
X139487714Y-82606819D02*
X139559142Y-82606819D01*
X139559142Y-82606819D02*
X139666285Y-82654438D01*
X139666285Y-82654438D02*
X139701999Y-82702057D01*
X140380571Y-82606819D02*
X140023428Y-82606819D01*
X140023428Y-82606819D02*
X139987714Y-83083009D01*
X139987714Y-83083009D02*
X140023428Y-83035390D01*
X140023428Y-83035390D02*
X140094857Y-82987771D01*
X140094857Y-82987771D02*
X140273428Y-82987771D01*
X140273428Y-82987771D02*
X140344857Y-83035390D01*
X140344857Y-83035390D02*
X140380571Y-83083009D01*
X140380571Y-83083009D02*
X140416285Y-83178247D01*
X140416285Y-83178247D02*
X140416285Y-83416342D01*
X140416285Y-83416342D02*
X140380571Y-83511580D01*
X140380571Y-83511580D02*
X140344857Y-83559200D01*
X140344857Y-83559200D02*
X140273428Y-83606819D01*
X140273428Y-83606819D02*
X140094857Y-83606819D01*
X140094857Y-83606819D02*
X140023428Y-83559200D01*
X140023428Y-83559200D02*
X139987714Y-83511580D01*
X150048571Y-87314819D02*
X150048571Y-88124342D01*
X150048571Y-88124342D02*
X150084285Y-88219580D01*
X150084285Y-88219580D02*
X150120000Y-88267200D01*
X150120000Y-88267200D02*
X150191428Y-88314819D01*
X150191428Y-88314819D02*
X150334285Y-88314819D01*
X150334285Y-88314819D02*
X150405714Y-88267200D01*
X150405714Y-88267200D02*
X150441428Y-88219580D01*
X150441428Y-88219580D02*
X150477142Y-88124342D01*
X150477142Y-88124342D02*
X150477142Y-87314819D01*
X151191428Y-87314819D02*
X150834285Y-87314819D01*
X150834285Y-87314819D02*
X150798571Y-87791009D01*
X150798571Y-87791009D02*
X150834285Y-87743390D01*
X150834285Y-87743390D02*
X150905714Y-87695771D01*
X150905714Y-87695771D02*
X151084285Y-87695771D01*
X151084285Y-87695771D02*
X151155714Y-87743390D01*
X151155714Y-87743390D02*
X151191428Y-87791009D01*
X151191428Y-87791009D02*
X151227142Y-87886247D01*
X151227142Y-87886247D02*
X151227142Y-88124342D01*
X151227142Y-88124342D02*
X151191428Y-88219580D01*
X151191428Y-88219580D02*
X151155714Y-88267200D01*
X151155714Y-88267200D02*
X151084285Y-88314819D01*
X151084285Y-88314819D02*
X150905714Y-88314819D01*
X150905714Y-88314819D02*
X150834285Y-88267200D01*
X150834285Y-88267200D02*
X150798571Y-88219580D01*
X144590000Y-92392200D02*
X144697143Y-92439819D01*
X144697143Y-92439819D02*
X144875714Y-92439819D01*
X144875714Y-92439819D02*
X144947143Y-92392200D01*
X144947143Y-92392200D02*
X144982857Y-92344580D01*
X144982857Y-92344580D02*
X145018571Y-92249342D01*
X145018571Y-92249342D02*
X145018571Y-92154104D01*
X145018571Y-92154104D02*
X144982857Y-92058866D01*
X144982857Y-92058866D02*
X144947143Y-92011247D01*
X144947143Y-92011247D02*
X144875714Y-91963628D01*
X144875714Y-91963628D02*
X144732857Y-91916009D01*
X144732857Y-91916009D02*
X144661428Y-91868390D01*
X144661428Y-91868390D02*
X144625714Y-91820771D01*
X144625714Y-91820771D02*
X144590000Y-91725533D01*
X144590000Y-91725533D02*
X144590000Y-91630295D01*
X144590000Y-91630295D02*
X144625714Y-91535057D01*
X144625714Y-91535057D02*
X144661428Y-91487438D01*
X144661428Y-91487438D02*
X144732857Y-91439819D01*
X144732857Y-91439819D02*
X144911428Y-91439819D01*
X144911428Y-91439819D02*
X145018571Y-91487438D01*
X145268571Y-91439819D02*
X145447143Y-92439819D01*
X145447143Y-92439819D02*
X145590000Y-91725533D01*
X145590000Y-91725533D02*
X145732857Y-92439819D01*
X145732857Y-92439819D02*
X145911429Y-91439819D01*
X146125714Y-91439819D02*
X146590000Y-91439819D01*
X146590000Y-91439819D02*
X146340000Y-91820771D01*
X146340000Y-91820771D02*
X146447143Y-91820771D01*
X146447143Y-91820771D02*
X146518572Y-91868390D01*
X146518572Y-91868390D02*
X146554286Y-91916009D01*
X146554286Y-91916009D02*
X146590000Y-92011247D01*
X146590000Y-92011247D02*
X146590000Y-92249342D01*
X146590000Y-92249342D02*
X146554286Y-92344580D01*
X146554286Y-92344580D02*
X146518572Y-92392200D01*
X146518572Y-92392200D02*
X146447143Y-92439819D01*
X146447143Y-92439819D02*
X146232857Y-92439819D01*
X146232857Y-92439819D02*
X146161429Y-92392200D01*
X146161429Y-92392200D02*
X146125714Y-92344580D01*
X136541000Y-92422200D02*
X136648143Y-92469819D01*
X136648143Y-92469819D02*
X136826714Y-92469819D01*
X136826714Y-92469819D02*
X136898143Y-92422200D01*
X136898143Y-92422200D02*
X136933857Y-92374580D01*
X136933857Y-92374580D02*
X136969571Y-92279342D01*
X136969571Y-92279342D02*
X136969571Y-92184104D01*
X136969571Y-92184104D02*
X136933857Y-92088866D01*
X136933857Y-92088866D02*
X136898143Y-92041247D01*
X136898143Y-92041247D02*
X136826714Y-91993628D01*
X136826714Y-91993628D02*
X136683857Y-91946009D01*
X136683857Y-91946009D02*
X136612428Y-91898390D01*
X136612428Y-91898390D02*
X136576714Y-91850771D01*
X136576714Y-91850771D02*
X136541000Y-91755533D01*
X136541000Y-91755533D02*
X136541000Y-91660295D01*
X136541000Y-91660295D02*
X136576714Y-91565057D01*
X136576714Y-91565057D02*
X136612428Y-91517438D01*
X136612428Y-91517438D02*
X136683857Y-91469819D01*
X136683857Y-91469819D02*
X136862428Y-91469819D01*
X136862428Y-91469819D02*
X136969571Y-91517438D01*
X137219571Y-91469819D02*
X137398143Y-92469819D01*
X137398143Y-92469819D02*
X137541000Y-91755533D01*
X137541000Y-91755533D02*
X137683857Y-92469819D01*
X137683857Y-92469819D02*
X137862429Y-91469819D01*
X138112429Y-91565057D02*
X138148143Y-91517438D01*
X138148143Y-91517438D02*
X138219572Y-91469819D01*
X138219572Y-91469819D02*
X138398143Y-91469819D01*
X138398143Y-91469819D02*
X138469572Y-91517438D01*
X138469572Y-91517438D02*
X138505286Y-91565057D01*
X138505286Y-91565057D02*
X138541000Y-91660295D01*
X138541000Y-91660295D02*
X138541000Y-91755533D01*
X138541000Y-91755533D02*
X138505286Y-91898390D01*
X138505286Y-91898390D02*
X138076714Y-92469819D01*
X138076714Y-92469819D02*
X138541000Y-92469819D01*
X138464999Y-79054819D02*
X138214999Y-78578628D01*
X138036428Y-79054819D02*
X138036428Y-78054819D01*
X138036428Y-78054819D02*
X138322142Y-78054819D01*
X138322142Y-78054819D02*
X138393571Y-78102438D01*
X138393571Y-78102438D02*
X138429285Y-78150057D01*
X138429285Y-78150057D02*
X138464999Y-78245295D01*
X138464999Y-78245295D02*
X138464999Y-78388152D01*
X138464999Y-78388152D02*
X138429285Y-78483390D01*
X138429285Y-78483390D02*
X138393571Y-78531009D01*
X138393571Y-78531009D02*
X138322142Y-78578628D01*
X138322142Y-78578628D02*
X138036428Y-78578628D01*
X138822142Y-79054819D02*
X138964999Y-79054819D01*
X138964999Y-79054819D02*
X139036428Y-79007200D01*
X139036428Y-79007200D02*
X139072142Y-78959580D01*
X139072142Y-78959580D02*
X139143571Y-78816723D01*
X139143571Y-78816723D02*
X139179285Y-78626247D01*
X139179285Y-78626247D02*
X139179285Y-78245295D01*
X139179285Y-78245295D02*
X139143571Y-78150057D01*
X139143571Y-78150057D02*
X139107857Y-78102438D01*
X139107857Y-78102438D02*
X139036428Y-78054819D01*
X139036428Y-78054819D02*
X138893571Y-78054819D01*
X138893571Y-78054819D02*
X138822142Y-78102438D01*
X138822142Y-78102438D02*
X138786428Y-78150057D01*
X138786428Y-78150057D02*
X138750714Y-78245295D01*
X138750714Y-78245295D02*
X138750714Y-78483390D01*
X138750714Y-78483390D02*
X138786428Y-78578628D01*
X138786428Y-78578628D02*
X138822142Y-78626247D01*
X138822142Y-78626247D02*
X138893571Y-78673866D01*
X138893571Y-78673866D02*
X139036428Y-78673866D01*
X139036428Y-78673866D02*
X139107857Y-78626247D01*
X139107857Y-78626247D02*
X139143571Y-78578628D01*
X139143571Y-78578628D02*
X139179285Y-78483390D01*
X150283571Y-55004819D02*
X150283571Y-55814342D01*
X150283571Y-55814342D02*
X150319285Y-55909580D01*
X150319285Y-55909580D02*
X150355000Y-55957200D01*
X150355000Y-55957200D02*
X150426428Y-56004819D01*
X150426428Y-56004819D02*
X150569285Y-56004819D01*
X150569285Y-56004819D02*
X150640714Y-55957200D01*
X150640714Y-55957200D02*
X150676428Y-55909580D01*
X150676428Y-55909580D02*
X150712142Y-55814342D01*
X150712142Y-55814342D02*
X150712142Y-55004819D01*
X151462142Y-56004819D02*
X151033571Y-56004819D01*
X151247856Y-56004819D02*
X151247856Y-55004819D01*
X151247856Y-55004819D02*
X151176428Y-55147676D01*
X151176428Y-55147676D02*
X151104999Y-55242914D01*
X151104999Y-55242914D02*
X151033571Y-55290533D01*
X135277856Y-77234819D02*
X135027856Y-76758628D01*
X134849285Y-77234819D02*
X134849285Y-76234819D01*
X134849285Y-76234819D02*
X135134999Y-76234819D01*
X135134999Y-76234819D02*
X135206428Y-76282438D01*
X135206428Y-76282438D02*
X135242142Y-76330057D01*
X135242142Y-76330057D02*
X135277856Y-76425295D01*
X135277856Y-76425295D02*
X135277856Y-76568152D01*
X135277856Y-76568152D02*
X135242142Y-76663390D01*
X135242142Y-76663390D02*
X135206428Y-76711009D01*
X135206428Y-76711009D02*
X135134999Y-76758628D01*
X135134999Y-76758628D02*
X134849285Y-76758628D01*
X135992142Y-77234819D02*
X135563571Y-77234819D01*
X135777856Y-77234819D02*
X135777856Y-76234819D01*
X135777856Y-76234819D02*
X135706428Y-76377676D01*
X135706428Y-76377676D02*
X135634999Y-76472914D01*
X135634999Y-76472914D02*
X135563571Y-76520533D01*
X136706428Y-77234819D02*
X136277857Y-77234819D01*
X136492142Y-77234819D02*
X136492142Y-76234819D01*
X136492142Y-76234819D02*
X136420714Y-76377676D01*
X136420714Y-76377676D02*
X136349285Y-76472914D01*
X136349285Y-76472914D02*
X136277857Y-76520533D01*
X133224999Y-71682780D02*
X133189285Y-71730400D01*
X133189285Y-71730400D02*
X133082142Y-71778019D01*
X133082142Y-71778019D02*
X133010714Y-71778019D01*
X133010714Y-71778019D02*
X132903571Y-71730400D01*
X132903571Y-71730400D02*
X132832142Y-71635161D01*
X132832142Y-71635161D02*
X132796428Y-71539923D01*
X132796428Y-71539923D02*
X132760714Y-71349447D01*
X132760714Y-71349447D02*
X132760714Y-71206590D01*
X132760714Y-71206590D02*
X132796428Y-71016114D01*
X132796428Y-71016114D02*
X132832142Y-70920876D01*
X132832142Y-70920876D02*
X132903571Y-70825638D01*
X132903571Y-70825638D02*
X133010714Y-70778019D01*
X133010714Y-70778019D02*
X133082142Y-70778019D01*
X133082142Y-70778019D02*
X133189285Y-70825638D01*
X133189285Y-70825638D02*
X133224999Y-70873257D01*
X133474999Y-70778019D02*
X133939285Y-70778019D01*
X133939285Y-70778019D02*
X133689285Y-71158971D01*
X133689285Y-71158971D02*
X133796428Y-71158971D01*
X133796428Y-71158971D02*
X133867857Y-71206590D01*
X133867857Y-71206590D02*
X133903571Y-71254209D01*
X133903571Y-71254209D02*
X133939285Y-71349447D01*
X133939285Y-71349447D02*
X133939285Y-71587542D01*
X133939285Y-71587542D02*
X133903571Y-71682780D01*
X133903571Y-71682780D02*
X133867857Y-71730400D01*
X133867857Y-71730400D02*
X133796428Y-71778019D01*
X133796428Y-71778019D02*
X133582142Y-71778019D01*
X133582142Y-71778019D02*
X133510714Y-71730400D01*
X133510714Y-71730400D02*
X133474999Y-71682780D01*
X121244999Y-72439580D02*
X121209285Y-72487200D01*
X121209285Y-72487200D02*
X121102142Y-72534819D01*
X121102142Y-72534819D02*
X121030714Y-72534819D01*
X121030714Y-72534819D02*
X120923571Y-72487200D01*
X120923571Y-72487200D02*
X120852142Y-72391961D01*
X120852142Y-72391961D02*
X120816428Y-72296723D01*
X120816428Y-72296723D02*
X120780714Y-72106247D01*
X120780714Y-72106247D02*
X120780714Y-71963390D01*
X120780714Y-71963390D02*
X120816428Y-71772914D01*
X120816428Y-71772914D02*
X120852142Y-71677676D01*
X120852142Y-71677676D02*
X120923571Y-71582438D01*
X120923571Y-71582438D02*
X121030714Y-71534819D01*
X121030714Y-71534819D02*
X121102142Y-71534819D01*
X121102142Y-71534819D02*
X121209285Y-71582438D01*
X121209285Y-71582438D02*
X121244999Y-71630057D01*
X121887857Y-71534819D02*
X121744999Y-71534819D01*
X121744999Y-71534819D02*
X121673571Y-71582438D01*
X121673571Y-71582438D02*
X121637857Y-71630057D01*
X121637857Y-71630057D02*
X121566428Y-71772914D01*
X121566428Y-71772914D02*
X121530714Y-71963390D01*
X121530714Y-71963390D02*
X121530714Y-72344342D01*
X121530714Y-72344342D02*
X121566428Y-72439580D01*
X121566428Y-72439580D02*
X121602142Y-72487200D01*
X121602142Y-72487200D02*
X121673571Y-72534819D01*
X121673571Y-72534819D02*
X121816428Y-72534819D01*
X121816428Y-72534819D02*
X121887857Y-72487200D01*
X121887857Y-72487200D02*
X121923571Y-72439580D01*
X121923571Y-72439580D02*
X121959285Y-72344342D01*
X121959285Y-72344342D02*
X121959285Y-72106247D01*
X121959285Y-72106247D02*
X121923571Y-72011009D01*
X121923571Y-72011009D02*
X121887857Y-71963390D01*
X121887857Y-71963390D02*
X121816428Y-71915771D01*
X121816428Y-71915771D02*
X121673571Y-71915771D01*
X121673571Y-71915771D02*
X121602142Y-71963390D01*
X121602142Y-71963390D02*
X121566428Y-72011009D01*
X121566428Y-72011009D02*
X121530714Y-72106247D01*
X151417856Y-93079580D02*
X151382142Y-93127200D01*
X151382142Y-93127200D02*
X151274999Y-93174819D01*
X151274999Y-93174819D02*
X151203571Y-93174819D01*
X151203571Y-93174819D02*
X151096428Y-93127200D01*
X151096428Y-93127200D02*
X151024999Y-93031961D01*
X151024999Y-93031961D02*
X150989285Y-92936723D01*
X150989285Y-92936723D02*
X150953571Y-92746247D01*
X150953571Y-92746247D02*
X150953571Y-92603390D01*
X150953571Y-92603390D02*
X150989285Y-92412914D01*
X150989285Y-92412914D02*
X151024999Y-92317676D01*
X151024999Y-92317676D02*
X151096428Y-92222438D01*
X151096428Y-92222438D02*
X151203571Y-92174819D01*
X151203571Y-92174819D02*
X151274999Y-92174819D01*
X151274999Y-92174819D02*
X151382142Y-92222438D01*
X151382142Y-92222438D02*
X151417856Y-92270057D01*
X152132142Y-93174819D02*
X151703571Y-93174819D01*
X151917856Y-93174819D02*
X151917856Y-92174819D01*
X151917856Y-92174819D02*
X151846428Y-92317676D01*
X151846428Y-92317676D02*
X151774999Y-92412914D01*
X151774999Y-92412914D02*
X151703571Y-92460533D01*
X152775000Y-92508152D02*
X152775000Y-93174819D01*
X152596428Y-92127200D02*
X152417857Y-92841485D01*
X152417857Y-92841485D02*
X152882142Y-92841485D01*
X155362200Y-95529999D02*
X155409819Y-95422857D01*
X155409819Y-95422857D02*
X155409819Y-95244285D01*
X155409819Y-95244285D02*
X155362200Y-95172857D01*
X155362200Y-95172857D02*
X155314580Y-95137142D01*
X155314580Y-95137142D02*
X155219342Y-95101428D01*
X155219342Y-95101428D02*
X155124104Y-95101428D01*
X155124104Y-95101428D02*
X155028866Y-95137142D01*
X155028866Y-95137142D02*
X154981247Y-95172857D01*
X154981247Y-95172857D02*
X154933628Y-95244285D01*
X154933628Y-95244285D02*
X154886009Y-95387142D01*
X154886009Y-95387142D02*
X154838390Y-95458571D01*
X154838390Y-95458571D02*
X154790771Y-95494285D01*
X154790771Y-95494285D02*
X154695533Y-95529999D01*
X154695533Y-95529999D02*
X154600295Y-95529999D01*
X154600295Y-95529999D02*
X154505057Y-95494285D01*
X154505057Y-95494285D02*
X154457438Y-95458571D01*
X154457438Y-95458571D02*
X154409819Y-95387142D01*
X154409819Y-95387142D02*
X154409819Y-95208571D01*
X154409819Y-95208571D02*
X154457438Y-95101428D01*
X154409819Y-94851428D02*
X155409819Y-94672856D01*
X155409819Y-94672856D02*
X154695533Y-94529999D01*
X154695533Y-94529999D02*
X155409819Y-94387142D01*
X155409819Y-94387142D02*
X154409819Y-94208571D01*
X155409819Y-93529999D02*
X155409819Y-93958570D01*
X155409819Y-93744285D02*
X154409819Y-93744285D01*
X154409819Y-93744285D02*
X154552676Y-93815713D01*
X154552676Y-93815713D02*
X154647914Y-93887142D01*
X154647914Y-93887142D02*
X154695533Y-93958570D01*
D12*
%TO.C,C2*%
X139092400Y-64985020D02*
X139092400Y-65266180D01*
X138072400Y-64985020D02*
X138072400Y-65266180D01*
%TO.C,C9*%
X139442364Y-77059200D02*
X139658036Y-77059200D01*
X139442364Y-77779200D02*
X139658036Y-77779200D01*
%TO.C,C4*%
X159819420Y-88840000D02*
X160100580Y-88840000D01*
X159819420Y-89860000D02*
X160100580Y-89860000D01*
%TO.C,R13*%
X153207258Y-84452500D02*
X152732742Y-84452500D01*
X153207258Y-83407500D02*
X152732742Y-83407500D01*
%TO.C,C1*%
X137460400Y-65227148D02*
X137460400Y-66649652D01*
X135640400Y-65227148D02*
X135640400Y-66649652D01*
%TO.C,R12*%
X155920942Y-83407500D02*
X156395458Y-83407500D01*
X155920942Y-84452500D02*
X156395458Y-84452500D01*
%TO.C,C12*%
X155420000Y-91604420D02*
X155420000Y-91885580D01*
X154400000Y-91604420D02*
X154400000Y-91885580D01*
%TO.C,R3*%
X139157942Y-67041500D02*
X139632458Y-67041500D01*
X139157942Y-68086500D02*
X139632458Y-68086500D01*
%TO.C,C10*%
X134923200Y-74059148D02*
X134923200Y-74581652D01*
X133453200Y-74059148D02*
X133453200Y-74581652D01*
%TO.C,U3*%
X131917000Y-80175500D02*
X131917000Y-81975500D01*
X131917000Y-80175500D02*
X131917000Y-79375500D01*
X135037000Y-80175500D02*
X135037000Y-80975500D01*
X135037000Y-80175500D02*
X135037000Y-79375500D01*
%TO.C,C11*%
X158200620Y-84986000D02*
X158481780Y-84986000D01*
X158200620Y-86006000D02*
X158481780Y-86006000D01*
%TO.C,U2*%
X122189200Y-63849200D02*
X128199200Y-63849200D01*
X124439200Y-70669200D02*
X128199200Y-70669200D01*
X128199200Y-63849200D02*
X128199200Y-65109200D01*
X128199200Y-70669200D02*
X128199200Y-69409200D01*
%TO.C,J2*%
X110310000Y-92640000D02*
X111640000Y-92640000D01*
X110310000Y-93970000D02*
X110310000Y-92640000D01*
X110310000Y-95240000D02*
X110310000Y-102920000D01*
X110310000Y-95240000D02*
X112970000Y-95240000D01*
X110310000Y-102920000D02*
X112970000Y-102920000D01*
X112970000Y-95240000D02*
X112970000Y-102920000D01*
%TO.C,J1*%
X125617000Y-76640000D02*
X128217000Y-76640000D01*
X122717000Y-76640000D02*
X121057000Y-76640000D01*
X121057000Y-76640000D02*
X121057000Y-84560000D01*
X130527000Y-77400000D02*
X130527000Y-78550000D01*
X131117000Y-78550000D02*
X131117000Y-79250000D01*
X130527000Y-78550000D02*
X131117000Y-78550000D01*
X130527000Y-82650000D02*
X130527000Y-83800000D01*
X128217000Y-84560000D02*
X125617000Y-84560000D01*
X121057000Y-84560000D02*
X122717000Y-84560000D01*
%TO.C,U4*%
X137469400Y-72663900D02*
X137469400Y-74463900D01*
X137469400Y-72663900D02*
X137469400Y-71863900D01*
X140589400Y-72663900D02*
X140589400Y-73463900D01*
X140589400Y-72663900D02*
X140589400Y-71863900D01*
%TO.C,R10*%
X136955200Y-71046236D02*
X136955200Y-71500364D01*
X135485200Y-71046236D02*
X135485200Y-71500364D01*
%TO.C,C5*%
X139686420Y-84072000D02*
X139967580Y-84072000D01*
X139686420Y-85092000D02*
X139967580Y-85092000D01*
%TO.C,R1*%
X144572258Y-85104500D02*
X144097742Y-85104500D01*
X144572258Y-84059500D02*
X144097742Y-84059500D01*
D11*
%TO.C,U5*%
X151938400Y-85294000D02*
X152463400Y-85294000D01*
X151938400Y-89594000D02*
X151938400Y-89069000D01*
X151938400Y-89594000D02*
X152463400Y-89594000D01*
X156238400Y-85294000D02*
X155713400Y-85294000D01*
X156238400Y-85294000D02*
X156238400Y-85819000D01*
X156238400Y-89594000D02*
X155713400Y-89594000D01*
X156238400Y-89594000D02*
X156238400Y-89069000D01*
D12*
%TO.C,SW3*%
X148340000Y-89235000D02*
X148340000Y-87235000D01*
X147340000Y-90535000D02*
X146890000Y-90985000D01*
X147340000Y-85935000D02*
X146890000Y-85485000D01*
X146890000Y-90985000D02*
X144290000Y-90985000D01*
X146890000Y-85485000D02*
X144290000Y-85485000D01*
X143840000Y-90535000D02*
X144290000Y-90985000D01*
X143840000Y-85935000D02*
X144290000Y-85485000D01*
X142840000Y-89235000D02*
X142840000Y-87235000D01*
%TO.C,C8*%
X138954820Y-69252800D02*
X139235980Y-69252800D01*
X138954820Y-70272800D02*
X139235980Y-70272800D01*
%TO.C,SW2*%
X140291000Y-89265000D02*
X140291000Y-87265000D01*
X139291000Y-90565000D02*
X138841000Y-91015000D01*
X139291000Y-85965000D02*
X138841000Y-85515000D01*
X138841000Y-91015000D02*
X136241000Y-91015000D01*
X138841000Y-85515000D02*
X136241000Y-85515000D01*
X135791000Y-90565000D02*
X136241000Y-91015000D01*
X135791000Y-85965000D02*
X136241000Y-85515000D01*
X134791000Y-89265000D02*
X134791000Y-87265000D01*
%TO.C,C16*%
X147675180Y-85092000D02*
X147394020Y-85092000D01*
X147675180Y-84072000D02*
X147394020Y-84072000D01*
%TO.C,R9*%
X138812536Y-75160200D02*
X139266664Y-75160200D01*
X138812536Y-76630200D02*
X139266664Y-76630200D01*
%TO.C,C7*%
X132913800Y-63606800D02*
X131043800Y-63606800D01*
X131043800Y-63606800D02*
X131043800Y-67516800D01*
X132913800Y-67516800D02*
X132913800Y-63606800D01*
%TO.C,C15*%
X135149000Y-63606800D02*
X133279000Y-63606800D01*
X133279000Y-63606800D02*
X133279000Y-67516800D01*
X135149000Y-67516800D02*
X135149000Y-63606800D01*
%TO.C,U1*%
X141855000Y-56850000D02*
X141855000Y-63600000D01*
X141855000Y-56850000D02*
X159855000Y-56850000D01*
X141855000Y-81600000D02*
X141855000Y-82350000D01*
X141855000Y-82350000D02*
X142855000Y-82350000D01*
X159855000Y-56850000D02*
X159855000Y-63600000D01*
X159855000Y-62790000D02*
X141855000Y-62790000D01*
X159855000Y-81600000D02*
X159855000Y-82350000D01*
X159855000Y-82350000D02*
X158855000Y-82350000D01*
%TO.C,R11*%
X136742700Y-74298542D02*
X136742700Y-74773058D01*
X135697700Y-74298542D02*
X135697700Y-74773058D01*
%TO.C,C3*%
X133088748Y-68810200D02*
X133611252Y-68810200D01*
X133088748Y-70280200D02*
X133611252Y-70280200D01*
%TO.C,C6*%
X122277000Y-71074000D02*
X122277000Y-72944000D01*
X122277000Y-72944000D02*
X126187000Y-72944000D01*
X126187000Y-71074000D02*
X122277000Y-71074000D01*
%TO.C,C13*%
X157081200Y-87911580D02*
X157081200Y-87630420D01*
X158101200Y-87911580D02*
X158101200Y-87630420D01*
%TO.C,C14*%
X152265580Y-91410000D02*
X151984420Y-91410000D01*
X152265580Y-90390000D02*
X151984420Y-90390000D01*
%TO.C,SW1*%
X157705000Y-97280000D02*
X159705000Y-97280000D01*
X156405000Y-96280000D02*
X155955000Y-95830000D01*
X161005000Y-96280000D02*
X161455000Y-95830000D01*
X155955000Y-95830000D02*
X155955000Y-93230000D01*
X161455000Y-95830000D02*
X161455000Y-93230000D01*
X156405000Y-92780000D02*
X155955000Y-93230000D01*
X161005000Y-92780000D02*
X161455000Y-93230000D01*
X157705000Y-91780000D02*
X159705000Y-91780000D01*
%TD*%
%LPC*%
D13*
%TO.C,C2*%
X138582400Y-64350600D03*
X138582400Y-65900600D03*
%TD*%
D14*
%TO.C,C9*%
X139070200Y-77419200D03*
X140030200Y-77419200D03*
%TD*%
D15*
%TO.C,C4*%
X159185000Y-89350000D03*
X160735000Y-89350000D03*
%TD*%
D16*
%TO.C,R13*%
X153795000Y-83930000D03*
X152145000Y-83930000D03*
%TD*%
D17*
%TO.C,C1*%
X136550400Y-64463400D03*
X136550400Y-67413400D03*
%TD*%
D18*
%TO.C,R12*%
X155333200Y-83930000D03*
X156983200Y-83930000D03*
%TD*%
D13*
%TO.C,C12*%
X154910000Y-90970000D03*
X154910000Y-92520000D03*
%TD*%
D18*
%TO.C,R3*%
X138570200Y-67564000D03*
X140220200Y-67564000D03*
%TD*%
D19*
%TO.C,C10*%
X134188200Y-73370400D03*
X134188200Y-75270400D03*
%TD*%
D20*
%TO.C,U3*%
X132527000Y-81313000D03*
X133477000Y-81313000D03*
X134427000Y-81313000D03*
X134427000Y-79038000D03*
X133477000Y-79038000D03*
X132527000Y-79038000D03*
%TD*%
D15*
%TO.C,C11*%
X157566200Y-85496000D03*
X159116200Y-85496000D03*
%TD*%
D21*
%TO.C,U2*%
X123139200Y-64959200D03*
X123139200Y-67259200D03*
D22*
X129439200Y-67259200D03*
D21*
X123139200Y-69559200D03*
%TD*%
D23*
%TO.C,J2*%
X111640000Y-93970000D03*
D24*
X111640000Y-96510000D03*
X111640000Y-99050000D03*
X111640000Y-101590000D03*
%TD*%
D25*
%TO.C,J1*%
X127067000Y-78400000D03*
X127067000Y-82800000D03*
D26*
X129667000Y-79000000D03*
X129667000Y-79800000D03*
X129667000Y-80600000D03*
X129667000Y-81400000D03*
X129667000Y-82200000D03*
D27*
X129667000Y-76200000D03*
X124167000Y-76200000D03*
X129667000Y-85000000D03*
X124167000Y-85000000D03*
%TD*%
D20*
%TO.C,U4*%
X138079400Y-73801400D03*
X139029400Y-73801400D03*
X139979400Y-73801400D03*
X139979400Y-71526400D03*
X138079400Y-71526400D03*
%TD*%
D28*
%TO.C,R10*%
X136220200Y-70360800D03*
X136220200Y-72185800D03*
%TD*%
D15*
%TO.C,C5*%
X139052000Y-84582000D03*
X140602000Y-84582000D03*
%TD*%
D16*
%TO.C,R1*%
X145160000Y-84582000D03*
X143510000Y-84582000D03*
%TD*%
D29*
%TO.C,U5*%
X152138400Y-86194000D03*
X152138400Y-86694000D03*
X152138400Y-87194000D03*
X152138400Y-87694000D03*
X152138400Y-88194000D03*
X152138400Y-88694000D03*
D30*
X152838400Y-89394000D03*
X153338400Y-89394000D03*
X153838400Y-89394000D03*
X154338400Y-89394000D03*
X154838400Y-89394000D03*
X155338400Y-89394000D03*
D29*
X156038400Y-88694000D03*
X156038400Y-88194000D03*
X156038400Y-87694000D03*
X156038400Y-87194000D03*
X156038400Y-86694000D03*
X156038400Y-86194000D03*
D30*
X155338400Y-85494000D03*
X154838400Y-85494000D03*
X154338400Y-85494000D03*
X153838400Y-85494000D03*
X153338400Y-85494000D03*
X152838400Y-85494000D03*
%TD*%
D31*
%TO.C,SW3*%
X148590000Y-90110000D03*
X142590000Y-90110000D03*
X148590000Y-86360000D03*
X142590000Y-86360000D03*
%TD*%
D15*
%TO.C,C8*%
X138320400Y-69762800D03*
X139870400Y-69762800D03*
%TD*%
D31*
%TO.C,SW2*%
X140541000Y-90140000D03*
X134541000Y-90140000D03*
X140541000Y-86390000D03*
X134541000Y-86390000D03*
%TD*%
D32*
%TO.C,C16*%
X148309600Y-84582000D03*
X146759600Y-84582000D03*
%TD*%
D33*
%TO.C,R9*%
X138127100Y-75895200D03*
X139952100Y-75895200D03*
%TD*%
D34*
%TO.C,C7*%
X131978800Y-64566800D03*
X131978800Y-67266800D03*
%TD*%
%TO.C,C15*%
X134214000Y-64566800D03*
X134214000Y-67266800D03*
%TD*%
D35*
%TO.C,U1*%
X142105000Y-64340000D03*
X142105000Y-65610000D03*
X142105000Y-66880000D03*
X142105000Y-68150000D03*
X142105000Y-69420000D03*
X142105000Y-70690000D03*
X142105000Y-71960000D03*
X142105000Y-73230000D03*
X142105000Y-74500000D03*
X142105000Y-75770000D03*
X142105000Y-77040000D03*
X142105000Y-78310000D03*
X142105000Y-79580000D03*
X142105000Y-80850000D03*
D36*
X143870000Y-82100000D03*
X145140000Y-82100000D03*
X146410000Y-82100000D03*
X147680000Y-82100000D03*
X148950000Y-82100000D03*
X150220000Y-82100000D03*
X151490000Y-82100000D03*
X152760000Y-82100000D03*
X154030000Y-82100000D03*
X155300000Y-82100000D03*
X156570000Y-82100000D03*
X157840000Y-82100000D03*
D35*
X159605000Y-80850000D03*
X159605000Y-79580000D03*
X159605000Y-78310000D03*
X159605000Y-77040000D03*
X159605000Y-75770000D03*
X159605000Y-74500000D03*
X159605000Y-73230000D03*
X159605000Y-71960000D03*
X159605000Y-70690000D03*
X159605000Y-69420000D03*
X159605000Y-68150000D03*
X159605000Y-66880000D03*
X159605000Y-65610000D03*
X159605000Y-64340000D03*
D37*
X147955000Y-70660000D03*
X147955000Y-72060000D03*
X147955000Y-73460000D03*
X147955000Y-73460000D03*
X149355000Y-70660000D03*
X149355000Y-70660000D03*
X149355000Y-72060000D03*
X149355000Y-73460000D03*
X150755000Y-70660000D03*
X150755000Y-72060000D03*
X150755000Y-73460000D03*
%TD*%
D38*
%TO.C,R11*%
X136220200Y-73710800D03*
X136220200Y-75360800D03*
%TD*%
D39*
%TO.C,C3*%
X132400000Y-69545200D03*
X134300000Y-69545200D03*
%TD*%
D40*
%TO.C,C6*%
X123237000Y-72009000D03*
X125937000Y-72009000D03*
%TD*%
D41*
%TO.C,C13*%
X157591200Y-88546000D03*
X157591200Y-86996000D03*
%TD*%
D32*
%TO.C,C14*%
X152900000Y-90900000D03*
X151350000Y-90900000D03*
%TD*%
D42*
%TO.C,SW1*%
X156830000Y-97530000D03*
X156830000Y-91530000D03*
X160580000Y-97530000D03*
X160580000Y-91530000D03*
%TD*%
%LPD*%
M02*
