%TF.GenerationSoftware,KiCad,Pcbnew,7.0.9*%
%TF.CreationDate,2023-12-19T02:47:06+01:00*%
%TF.ProjectId,biosensorbox,62696f73-656e-4736-9f72-626f782e6b69,rev?*%
%TF.SameCoordinates,Original*%
%TF.FileFunction,Soldermask,Top*%
%TF.FilePolarity,Negative*%
%FSLAX46Y46*%
G04 Gerber Fmt 4.6, Leading zero omitted, Abs format (unit mm)*
G04 Created by KiCad (PCBNEW 7.0.9) date 2023-12-19 02:47:06*
%MOMM*%
%LPD*%
G01*
G04 APERTURE LIST*
G04 Aperture macros list*
%AMRoundRect*
0 Rectangle with rounded corners*
0 $1 Rounding radius*
0 $2 $3 $4 $5 $6 $7 $8 $9 X,Y pos of 4 corners*
0 Add a 4 corners polygon primitive as box body*
4,1,4,$2,$3,$4,$5,$6,$7,$8,$9,$2,$3,0*
0 Add four circle primitives for the rounded corners*
1,1,$1+$1,$2,$3*
1,1,$1+$1,$4,$5*
1,1,$1+$1,$6,$7*
1,1,$1+$1,$8,$9*
0 Add four rect primitives between the rounded corners*
20,1,$1+$1,$2,$3,$4,$5,0*
20,1,$1+$1,$4,$5,$6,$7,0*
20,1,$1+$1,$6,$7,$8,$9,0*
20,1,$1+$1,$8,$9,$2,$3,0*%
G04 Aperture macros list end*
%ADD10RoundRect,0.225000X-0.250000X0.225000X-0.250000X-0.225000X0.250000X-0.225000X0.250000X0.225000X0*%
%ADD11RoundRect,0.140000X-0.140000X-0.170000X0.140000X-0.170000X0.140000X0.170000X-0.140000X0.170000X0*%
%ADD12RoundRect,0.225000X-0.225000X-0.250000X0.225000X-0.250000X0.225000X0.250000X-0.225000X0.250000X0*%
%ADD13RoundRect,0.200000X0.200000X0.275000X-0.200000X0.275000X-0.200000X-0.275000X0.200000X-0.275000X0*%
%ADD14RoundRect,0.250000X-0.650000X0.325000X-0.650000X-0.325000X0.650000X-0.325000X0.650000X0.325000X0*%
%ADD15RoundRect,0.200000X-0.200000X-0.275000X0.200000X-0.275000X0.200000X0.275000X-0.200000X0.275000X0*%
%ADD16RoundRect,0.250000X-0.475000X0.250000X-0.475000X-0.250000X0.475000X-0.250000X0.475000X0.250000X0*%
%ADD17RoundRect,0.150000X0.150000X-0.512500X0.150000X0.512500X-0.150000X0.512500X-0.150000X-0.512500X0*%
%ADD18R,2.000000X1.500000*%
%ADD19R,2.000000X3.800000*%
%ADD20R,1.700000X1.700000*%
%ADD21O,1.700000X1.700000*%
%ADD22C,0.900000*%
%ADD23R,2.500000X0.500000*%
%ADD24R,2.500000X2.000000*%
%ADD25RoundRect,0.250000X-0.450000X0.262500X-0.450000X-0.262500X0.450000X-0.262500X0.450000X0.262500X0*%
%ADD26RoundRect,0.075000X-0.350000X-0.075000X0.350000X-0.075000X0.350000X0.075000X-0.350000X0.075000X0*%
%ADD27RoundRect,0.075000X0.075000X-0.350000X0.075000X0.350000X-0.075000X0.350000X-0.075000X-0.350000X0*%
%ADD28R,1.000000X0.750000*%
%ADD29RoundRect,0.225000X0.225000X0.250000X-0.225000X0.250000X-0.225000X-0.250000X0.225000X-0.250000X0*%
%ADD30RoundRect,0.250000X-0.262500X-0.450000X0.262500X-0.450000X0.262500X0.450000X-0.262500X0.450000X0*%
%ADD31RoundRect,0.250000X-0.425000X0.450000X-0.425000X-0.450000X0.425000X-0.450000X0.425000X0.450000X0*%
%ADD32R,1.500000X0.900000*%
%ADD33R,0.900000X1.500000*%
%ADD34R,0.900000X0.900000*%
%ADD35RoundRect,0.200000X-0.275000X0.200000X-0.275000X-0.200000X0.275000X-0.200000X0.275000X0.200000X0*%
%ADD36RoundRect,0.250000X-0.250000X-0.475000X0.250000X-0.475000X0.250000X0.475000X-0.250000X0.475000X0*%
%ADD37RoundRect,0.250000X-0.450000X-0.425000X0.450000X-0.425000X0.450000X0.425000X-0.450000X0.425000X0*%
%ADD38RoundRect,0.225000X0.250000X-0.225000X0.250000X0.225000X-0.250000X0.225000X-0.250000X-0.225000X0*%
%ADD39R,0.750000X1.000000*%
G04 APERTURE END LIST*
D10*
%TO.C,C2*%
X138582400Y-64350600D03*
X138582400Y-65900600D03*
%TD*%
D11*
%TO.C,C9*%
X139070200Y-77419200D03*
X140030200Y-77419200D03*
%TD*%
D12*
%TO.C,C4*%
X159185000Y-89350000D03*
X160735000Y-89350000D03*
%TD*%
D13*
%TO.C,R13*%
X153795000Y-83930000D03*
X152145000Y-83930000D03*
%TD*%
D14*
%TO.C,C1*%
X136550400Y-64463400D03*
X136550400Y-67413400D03*
%TD*%
D15*
%TO.C,R12*%
X155333200Y-83930000D03*
X156983200Y-83930000D03*
%TD*%
D10*
%TO.C,C12*%
X154910000Y-90970000D03*
X154910000Y-92520000D03*
%TD*%
D15*
%TO.C,R3*%
X138570200Y-67564000D03*
X140220200Y-67564000D03*
%TD*%
D16*
%TO.C,C10*%
X134188200Y-73370400D03*
X134188200Y-75270400D03*
%TD*%
D17*
%TO.C,U3*%
X132527000Y-81313000D03*
X133477000Y-81313000D03*
X134427000Y-81313000D03*
X134427000Y-79038000D03*
X133477000Y-79038000D03*
X132527000Y-79038000D03*
%TD*%
D12*
%TO.C,C11*%
X157566200Y-85496000D03*
X159116200Y-85496000D03*
%TD*%
D18*
%TO.C,U2*%
X123139200Y-64959200D03*
X123139200Y-67259200D03*
D19*
X129439200Y-67259200D03*
D18*
X123139200Y-69559200D03*
%TD*%
D20*
%TO.C,J2*%
X111640000Y-93970000D03*
D21*
X111640000Y-96510000D03*
X111640000Y-99050000D03*
X111640000Y-101590000D03*
%TD*%
D22*
%TO.C,J1*%
X127067000Y-78400000D03*
X127067000Y-82800000D03*
D23*
X129667000Y-79000000D03*
X129667000Y-79800000D03*
X129667000Y-80600000D03*
X129667000Y-81400000D03*
X129667000Y-82200000D03*
D24*
X129667000Y-76200000D03*
X124167000Y-76200000D03*
X129667000Y-85000000D03*
X124167000Y-85000000D03*
%TD*%
D17*
%TO.C,U4*%
X138079400Y-73801400D03*
X139029400Y-73801400D03*
X139979400Y-73801400D03*
X139979400Y-71526400D03*
X138079400Y-71526400D03*
%TD*%
D25*
%TO.C,R10*%
X136220200Y-70360800D03*
X136220200Y-72185800D03*
%TD*%
D12*
%TO.C,C5*%
X139052000Y-84582000D03*
X140602000Y-84582000D03*
%TD*%
D13*
%TO.C,R1*%
X145160000Y-84582000D03*
X143510000Y-84582000D03*
%TD*%
D26*
%TO.C,U5*%
X152138400Y-86194000D03*
X152138400Y-86694000D03*
X152138400Y-87194000D03*
X152138400Y-87694000D03*
X152138400Y-88194000D03*
X152138400Y-88694000D03*
D27*
X152838400Y-89394000D03*
X153338400Y-89394000D03*
X153838400Y-89394000D03*
X154338400Y-89394000D03*
X154838400Y-89394000D03*
X155338400Y-89394000D03*
D26*
X156038400Y-88694000D03*
X156038400Y-88194000D03*
X156038400Y-87694000D03*
X156038400Y-87194000D03*
X156038400Y-86694000D03*
X156038400Y-86194000D03*
D27*
X155338400Y-85494000D03*
X154838400Y-85494000D03*
X154338400Y-85494000D03*
X153838400Y-85494000D03*
X153338400Y-85494000D03*
X152838400Y-85494000D03*
%TD*%
D28*
%TO.C,SW3*%
X148590000Y-90110000D03*
X142590000Y-90110000D03*
X148590000Y-86360000D03*
X142590000Y-86360000D03*
%TD*%
D12*
%TO.C,C8*%
X138320400Y-69762800D03*
X139870400Y-69762800D03*
%TD*%
D28*
%TO.C,SW2*%
X140541000Y-90140000D03*
X134541000Y-90140000D03*
X140541000Y-86390000D03*
X134541000Y-86390000D03*
%TD*%
D29*
%TO.C,C16*%
X148309600Y-84582000D03*
X146759600Y-84582000D03*
%TD*%
D30*
%TO.C,R9*%
X138127100Y-75895200D03*
X139952100Y-75895200D03*
%TD*%
D31*
%TO.C,C7*%
X131978800Y-64566800D03*
X131978800Y-67266800D03*
%TD*%
%TO.C,C15*%
X134214000Y-64566800D03*
X134214000Y-67266800D03*
%TD*%
D32*
%TO.C,U1*%
X142105000Y-64340000D03*
X142105000Y-65610000D03*
X142105000Y-66880000D03*
X142105000Y-68150000D03*
X142105000Y-69420000D03*
X142105000Y-70690000D03*
X142105000Y-71960000D03*
X142105000Y-73230000D03*
X142105000Y-74500000D03*
X142105000Y-75770000D03*
X142105000Y-77040000D03*
X142105000Y-78310000D03*
X142105000Y-79580000D03*
X142105000Y-80850000D03*
D33*
X143870000Y-82100000D03*
X145140000Y-82100000D03*
X146410000Y-82100000D03*
X147680000Y-82100000D03*
X148950000Y-82100000D03*
X150220000Y-82100000D03*
X151490000Y-82100000D03*
X152760000Y-82100000D03*
X154030000Y-82100000D03*
X155300000Y-82100000D03*
X156570000Y-82100000D03*
X157840000Y-82100000D03*
D32*
X159605000Y-80850000D03*
X159605000Y-79580000D03*
X159605000Y-78310000D03*
X159605000Y-77040000D03*
X159605000Y-75770000D03*
X159605000Y-74500000D03*
X159605000Y-73230000D03*
X159605000Y-71960000D03*
X159605000Y-70690000D03*
X159605000Y-69420000D03*
X159605000Y-68150000D03*
X159605000Y-66880000D03*
X159605000Y-65610000D03*
X159605000Y-64340000D03*
D34*
X147955000Y-70660000D03*
X147955000Y-72060000D03*
X147955000Y-73460000D03*
X147955000Y-73460000D03*
X149355000Y-70660000D03*
X149355000Y-70660000D03*
X149355000Y-72060000D03*
X149355000Y-73460000D03*
X150755000Y-70660000D03*
X150755000Y-72060000D03*
X150755000Y-73460000D03*
%TD*%
D35*
%TO.C,R11*%
X136220200Y-73710800D03*
X136220200Y-75360800D03*
%TD*%
D36*
%TO.C,C3*%
X132400000Y-69545200D03*
X134300000Y-69545200D03*
%TD*%
D37*
%TO.C,C6*%
X123237000Y-72009000D03*
X125937000Y-72009000D03*
%TD*%
D38*
%TO.C,C13*%
X157591200Y-88546000D03*
X157591200Y-86996000D03*
%TD*%
D29*
%TO.C,C14*%
X152900000Y-90900000D03*
X151350000Y-90900000D03*
%TD*%
D39*
%TO.C,SW1*%
X156830000Y-97530000D03*
X156830000Y-91530000D03*
X160580000Y-97530000D03*
X160580000Y-91530000D03*
%TD*%
M02*
