%TF.GenerationSoftware,KiCad,Pcbnew,7.0.9*%
%TF.CreationDate,2023-12-19T02:47:06+01:00*%
%TF.ProjectId,biosensorbox,62696f73-656e-4736-9f72-626f782e6b69,rev?*%
%TF.SameCoordinates,Original*%
%TF.FileFunction,Copper,L4,Bot*%
%TF.FilePolarity,Positive*%
%FSLAX46Y46*%
G04 Gerber Fmt 4.6, Leading zero omitted, Abs format (unit mm)*
G04 Created by KiCad (PCBNEW 7.0.9) date 2023-12-19 02:47:06*
%MOMM*%
%LPD*%
G01*
G04 APERTURE LIST*
G04 Aperture macros list*
%AMRoundRect*
0 Rectangle with rounded corners*
0 $1 Rounding radius*
0 $2 $3 $4 $5 $6 $7 $8 $9 X,Y pos of 4 corners*
0 Add a 4 corners polygon primitive as box body*
4,1,4,$2,$3,$4,$5,$6,$7,$8,$9,$2,$3,0*
0 Add four circle primitives for the rounded corners*
1,1,$1+$1,$2,$3*
1,1,$1+$1,$4,$5*
1,1,$1+$1,$6,$7*
1,1,$1+$1,$8,$9*
0 Add four rect primitives between the rounded corners*
20,1,$1+$1,$2,$3,$4,$5,0*
20,1,$1+$1,$4,$5,$6,$7,0*
20,1,$1+$1,$6,$7,$8,$9,0*
20,1,$1+$1,$8,$9,$2,$3,0*%
G04 Aperture macros list end*
%TA.AperFunction,SMDPad,CuDef*%
%ADD10RoundRect,0.243750X-0.150260X0.494975X-0.494975X0.150260X0.150260X-0.494975X0.494975X-0.150260X0*%
%TD*%
%TA.AperFunction,SMDPad,CuDef*%
%ADD11RoundRect,0.243750X0.494975X0.150260X0.150260X0.494975X-0.494975X-0.150260X-0.150260X-0.494975X0*%
%TD*%
%TA.AperFunction,SMDPad,CuDef*%
%ADD12RoundRect,0.243750X0.150260X-0.494975X0.494975X-0.150260X-0.150260X0.494975X-0.494975X0.150260X0*%
%TD*%
%TA.AperFunction,SMDPad,CuDef*%
%ADD13RoundRect,0.243750X0.456250X-0.243750X0.456250X0.243750X-0.456250X0.243750X-0.456250X-0.243750X0*%
%TD*%
%TA.AperFunction,SMDPad,CuDef*%
%ADD14RoundRect,0.243750X0.243750X0.456250X-0.243750X0.456250X-0.243750X-0.456250X0.243750X-0.456250X0*%
%TD*%
%TA.AperFunction,SMDPad,CuDef*%
%ADD15RoundRect,0.243750X-0.456250X0.243750X-0.456250X-0.243750X0.456250X-0.243750X0.456250X0.243750X0*%
%TD*%
%TA.AperFunction,ComponentPad*%
%ADD16R,1.700000X1.700000*%
%TD*%
%TA.AperFunction,ComponentPad*%
%ADD17O,1.700000X1.700000*%
%TD*%
%TA.AperFunction,SMDPad,CuDef*%
%ADD18RoundRect,0.200000X0.053033X-0.335876X0.335876X-0.053033X-0.053033X0.335876X-0.335876X0.053033X0*%
%TD*%
%TA.AperFunction,SMDPad,CuDef*%
%ADD19RoundRect,0.175000X-0.525000X-0.825000X0.525000X-0.825000X0.525000X0.825000X-0.525000X0.825000X0*%
%TD*%
%TA.AperFunction,SMDPad,CuDef*%
%ADD20RoundRect,0.150000X-0.550000X-0.450000X0.550000X-0.450000X0.550000X0.450000X-0.550000X0.450000X0*%
%TD*%
%TA.AperFunction,SMDPad,CuDef*%
%ADD21RoundRect,0.200000X-0.200000X-0.275000X0.200000X-0.275000X0.200000X0.275000X-0.200000X0.275000X0*%
%TD*%
%TA.AperFunction,SMDPad,CuDef*%
%ADD22RoundRect,0.200000X-0.275000X0.200000X-0.275000X-0.200000X0.275000X-0.200000X0.275000X0.200000X0*%
%TD*%
%TA.AperFunction,SMDPad,CuDef*%
%ADD23RoundRect,0.200000X-0.053033X0.335876X-0.335876X0.053033X0.053033X-0.335876X0.335876X-0.053033X0*%
%TD*%
%TA.AperFunction,SMDPad,CuDef*%
%ADD24RoundRect,0.150000X0.587500X0.150000X-0.587500X0.150000X-0.587500X-0.150000X0.587500X-0.150000X0*%
%TD*%
%TA.AperFunction,SMDPad,CuDef*%
%ADD25RoundRect,0.200000X0.275000X-0.200000X0.275000X0.200000X-0.275000X0.200000X-0.275000X-0.200000X0*%
%TD*%
%TA.AperFunction,SMDPad,CuDef*%
%ADD26RoundRect,0.200000X-0.335876X-0.053033X-0.053033X-0.335876X0.335876X0.053033X0.053033X0.335876X0*%
%TD*%
%TA.AperFunction,ViaPad*%
%ADD27C,0.800000*%
%TD*%
%TA.AperFunction,Conductor*%
%ADD28C,0.250000*%
%TD*%
%TA.AperFunction,Conductor*%
%ADD29C,0.500000*%
%TD*%
%TA.AperFunction,Conductor*%
%ADD30C,0.200000*%
%TD*%
G04 APERTURE END LIST*
D10*
%TO.P,D9,1,K*%
%TO.N,Net-(D9-K)*%
X129745713Y-71320687D03*
%TO.P,D9,2,A*%
%TO.N,+3V3*%
X128419887Y-72646513D03*
%TD*%
D11*
%TO.P,D8,1,K*%
%TO.N,Net-(D8-K)*%
X129899103Y-80138103D03*
%TO.P,D8,2,A*%
%TO.N,+3V3*%
X128573277Y-78812277D03*
%TD*%
D12*
%TO.P,D7,1,K*%
%TO.N,Net-(D7-K)*%
X136844174Y-79835826D03*
%TO.P,D7,2,A*%
%TO.N,+3V3*%
X138170000Y-78510000D03*
%TD*%
D11*
%TO.P,D6,1,K*%
%TO.N,Net-(D6-K)*%
X138178513Y-72445266D03*
%TO.P,D6,2,A*%
%TO.N,+3V3*%
X136852687Y-71119440D03*
%TD*%
D13*
%TO.P,D4,1,K*%
%TO.N,Net-(D4-K)*%
X128075600Y-76592000D03*
%TO.P,D4,2,A*%
%TO.N,+3V3*%
X128075600Y-74717000D03*
%TD*%
D14*
%TO.P,D3,1,K*%
%TO.N,Net-(D3-K)*%
X134000000Y-79020000D03*
%TO.P,D3,2,A*%
%TO.N,+3V3*%
X132125000Y-79020000D03*
%TD*%
D15*
%TO.P,D2,1,K*%
%TO.N,Net-(D2-K)*%
X138450000Y-74642500D03*
%TO.P,D2,2,A*%
%TO.N,+3V3*%
X138450000Y-76517500D03*
%TD*%
D14*
%TO.P,D1,1,K*%
%TO.N,Net-(D1-K)*%
X134120000Y-72220000D03*
%TO.P,D1,2,A*%
%TO.N,+3V3*%
X132245000Y-72220000D03*
%TD*%
D16*
%TO.P,J2,1,Pin_1*%
%TO.N,/SDA_DISP*%
X111640000Y-93970000D03*
D17*
%TO.P,J2,2,Pin_2*%
%TO.N,/SCL_DISP*%
X111640000Y-96510000D03*
%TO.P,J2,3,Pin_3*%
%TO.N,+3V3*%
X111640000Y-99050000D03*
%TO.P,J2,4,Pin_4*%
%TO.N,GND*%
X111640000Y-101590000D03*
%TD*%
D18*
%TO.P,R17,1*%
%TO.N,Net-(Q1-D)*%
X127100000Y-71160000D03*
%TO.P,R17,2*%
%TO.N,Net-(D9-K)*%
X128266726Y-69993274D03*
%TD*%
D19*
%TO.P,D5,1,K*%
%TO.N,Net-(D5-K)*%
X136298400Y-75641200D03*
D20*
%TO.P,D5,2,A*%
%TO.N,GND*%
X130198400Y-75641200D03*
%TD*%
D21*
%TO.P,R6,1*%
%TO.N,Net-(Q2-D)*%
X132227300Y-80899200D03*
%TO.P,R6,2*%
%TO.N,Net-(D3-K)*%
X133877300Y-80899200D03*
%TD*%
D22*
%TO.P,R18,1*%
%TO.N,/GREEN_DRIVER*%
X144805400Y-74943200D03*
%TO.P,R18,2*%
%TO.N,Net-(Q1-G)*%
X144805400Y-76593200D03*
%TD*%
%TO.P,R7,1*%
%TO.N,Net-(Q2-D)*%
X126240000Y-74865000D03*
%TO.P,R7,2*%
%TO.N,Net-(D4-K)*%
X126240000Y-76515000D03*
%TD*%
D23*
%TO.P,R15,1*%
%TO.N,Net-(Q1-D)*%
X139296726Y-79943274D03*
%TO.P,R15,2*%
%TO.N,Net-(D7-K)*%
X138130000Y-81110000D03*
%TD*%
D24*
%TO.P,Q2,1,G*%
%TO.N,Net-(Q2-G)*%
X134490000Y-66920000D03*
%TO.P,Q2,2,S*%
%TO.N,GND*%
X134490000Y-68820000D03*
%TO.P,Q2,3,D*%
%TO.N,Net-(Q2-D)*%
X132615000Y-67870000D03*
%TD*%
D25*
%TO.P,R8,1*%
%TO.N,/RED_DRIVER*%
X144805400Y-73405000D03*
%TO.P,R8,2*%
%TO.N,Net-(Q2-G)*%
X144805400Y-71755000D03*
%TD*%
D26*
%TO.P,R16,1*%
%TO.N,Net-(Q1-D)*%
X127343274Y-80313274D03*
%TO.P,R16,2*%
%TO.N,Net-(D8-K)*%
X128510000Y-81480000D03*
%TD*%
D21*
%TO.P,R4,2*%
%TO.N,Net-(D1-K)*%
X134080000Y-70400000D03*
%TO.P,R4,1*%
%TO.N,Net-(Q2-D)*%
X132430000Y-70400000D03*
%TD*%
D26*
%TO.P,R14,1*%
%TO.N,Net-(Q1-D)*%
X138253274Y-69913274D03*
%TO.P,R14,2*%
%TO.N,Net-(D6-K)*%
X139420000Y-71080000D03*
%TD*%
D25*
%TO.P,R5,1*%
%TO.N,Net-(Q2-D)*%
X140390000Y-76425000D03*
%TO.P,R5,2*%
%TO.N,Net-(D2-K)*%
X140390000Y-74775000D03*
%TD*%
D24*
%TO.P,Q1,1,G*%
%TO.N,Net-(Q1-G)*%
X133781800Y-82529600D03*
%TO.P,Q1,2,S*%
%TO.N,GND*%
X133781800Y-84429600D03*
%TO.P,Q1,3,D*%
%TO.N,Net-(Q1-D)*%
X131906800Y-83479600D03*
%TD*%
D27*
%TO.N,Net-(Q1-G)*%
X138370000Y-83130000D03*
X137280000Y-81990000D03*
%TO.N,GND*%
X136270000Y-68840000D03*
X121200000Y-65000000D03*
%TO.N,/SCL_DISP*%
X146660000Y-94930000D03*
X151270000Y-77480000D03*
%TO.N,/SDA_DISP*%
X150090000Y-77160000D03*
X145280000Y-93130000D03*
%TO.N,GND*%
X121500000Y-74710000D03*
X129610000Y-87340000D03*
X124150000Y-87760000D03*
%TO.N,+3V3*%
X131640000Y-73965300D03*
%TO.N,Net-(D5-K)*%
X137120000Y-77440000D03*
%TO.N,GND*%
X132500000Y-75290000D03*
%TO.N,+3V3*%
X150740000Y-84910000D03*
X158030000Y-79230000D03*
X158030000Y-83910000D03*
X150740000Y-79450000D03*
%TO.N,GND*%
X140370000Y-64340000D03*
X152080000Y-72060000D03*
X142600000Y-91670000D03*
X157940000Y-64340000D03*
X152100000Y-73450000D03*
X155230000Y-97520000D03*
X134540000Y-91670000D03*
X146750000Y-70670000D03*
X149720000Y-84570000D03*
X146790000Y-73450000D03*
X135400000Y-84420000D03*
X159140000Y-86900000D03*
X149350000Y-69360000D03*
X131170000Y-69530000D03*
X130210000Y-77799502D03*
X146750000Y-72050000D03*
X149950000Y-90880000D03*
X138479399Y-68679399D03*
X149360000Y-74710000D03*
X129680000Y-83300000D03*
X152060000Y-70660000D03*
X150750000Y-69380000D03*
X147950000Y-69340000D03*
X153520000Y-92350000D03*
X150760000Y-74710000D03*
X150780000Y-86190000D03*
X137840000Y-84580000D03*
X154920000Y-93890000D03*
X127290000Y-73320000D03*
X147950000Y-74710000D03*
%TO.N,Net-(U1-EN)*%
X142090000Y-83860000D03*
X143660000Y-68270000D03*
%TO.N,/DisplayButton*%
X139870000Y-88290000D03*
X143890000Y-79490000D03*
%TO.N,/RED_DRIVER*%
X143460000Y-73940000D03*
%TO.N,/GREEN_DRIVER*%
X143450000Y-75770000D03*
%TO.N,/INT_IMU*%
X157600000Y-90060000D03*
X157270000Y-80590000D03*
%TD*%
D28*
%TO.N,Net-(Q1-G)*%
X138370000Y-83028600D02*
X144805400Y-76593200D01*
X138370000Y-83130000D02*
X138370000Y-83028600D01*
X133781800Y-82529600D02*
X136740400Y-82529600D01*
X136740400Y-82529600D02*
X137280000Y-81990000D01*
%TO.N,Net-(Q1-D)*%
X139296726Y-81074646D02*
X139296726Y-79943274D01*
X136891772Y-83479600D02*
X139296726Y-81074646D01*
X131906800Y-83479600D02*
X136891772Y-83479600D01*
X125440000Y-78410000D02*
X125440000Y-72820000D01*
X125440000Y-72820000D02*
X127100000Y-71160000D01*
X127343274Y-80313274D02*
X125440000Y-78410000D01*
%TO.N,Net-(D4-K)*%
X126240000Y-76515000D02*
X127998600Y-76515000D01*
X127998600Y-76515000D02*
X128075600Y-76592000D01*
%TO.N,Net-(Q2-D)*%
X126240000Y-73340000D02*
X126240000Y-74865000D01*
X128178765Y-71401235D02*
X126240000Y-73340000D01*
X130440813Y-72389187D02*
X129665165Y-72389187D01*
X132430000Y-70400000D02*
X130440813Y-72389187D01*
X129665165Y-72389187D02*
X128677213Y-71401235D01*
X128677213Y-71401235D02*
X128178765Y-71401235D01*
%TO.N,+3V3*%
X131775000Y-74100300D02*
X131640000Y-73965300D01*
X131775000Y-78670000D02*
X131775000Y-74100300D01*
X132125000Y-79020000D02*
X131775000Y-78670000D01*
%TO.N,Net-(D1-K)*%
X134120000Y-70440000D02*
X134080000Y-70400000D01*
X134120000Y-72220000D02*
X134120000Y-70440000D01*
%TO.N,Net-(D4-K)*%
X126537000Y-76592000D02*
X126450000Y-76505000D01*
%TO.N,+3V3*%
X129199106Y-74717000D02*
X129950806Y-73965300D01*
X128075600Y-74717000D02*
X129199106Y-74717000D01*
X136852687Y-72582687D02*
X136852687Y-71119440D01*
X137790000Y-73520000D02*
X136852687Y-72582687D01*
X141190000Y-74351996D02*
X140358004Y-73520000D01*
X141190000Y-76848004D02*
X141190000Y-74351996D01*
X139082500Y-77150000D02*
X140888004Y-77150000D01*
X140358004Y-73520000D02*
X137790000Y-73520000D01*
X138450000Y-76517500D02*
X139082500Y-77150000D01*
X140888004Y-77150000D02*
X141190000Y-76848004D01*
%TO.N,Net-(Q2-D)*%
X133598800Y-74316200D02*
X133225000Y-74690000D01*
X137323400Y-75455000D02*
X137323400Y-74604244D01*
X137323400Y-74604244D02*
X137035356Y-74316200D01*
X139420000Y-75455000D02*
X137323400Y-75455000D01*
X140390000Y-76425000D02*
X139420000Y-75455000D01*
X137035356Y-74316200D02*
X133598800Y-74316200D01*
%TO.N,+3V3*%
X134310000Y-81710000D02*
X135140000Y-80880000D01*
X131502300Y-81397204D02*
X131815096Y-81710000D01*
X131815096Y-81710000D02*
X134310000Y-81710000D01*
X131502300Y-79642700D02*
X131502300Y-81397204D01*
X132125000Y-79020000D02*
X131502300Y-79642700D01*
%TO.N,Net-(Q2-D)*%
X133070200Y-80056300D02*
X132227300Y-80899200D01*
X133070200Y-77749800D02*
X133070200Y-80056300D01*
X133225000Y-77595000D02*
X133070200Y-77749800D01*
X133225000Y-71195000D02*
X133225000Y-77595000D01*
X132430000Y-70400000D02*
X133225000Y-71195000D01*
%TO.N,Net-(D3-K)*%
X134000000Y-80776500D02*
X133877300Y-80899200D01*
X134000000Y-79020000D02*
X134000000Y-80776500D01*
%TO.N,+3V3*%
X132125000Y-79020000D02*
X128781000Y-79020000D01*
X128781000Y-79020000D02*
X128573277Y-78812277D01*
X132245000Y-73360300D02*
X131640000Y-73965300D01*
X132245000Y-72220000D02*
X132245000Y-73360300D01*
%TO.N,GND*%
X136250000Y-68820000D02*
X136270000Y-68840000D01*
X134490000Y-68820000D02*
X136250000Y-68820000D01*
%TO.N,Net-(Q2-G)*%
X139970400Y-66920000D02*
X144805400Y-71755000D01*
X134490000Y-66920000D02*
X139970400Y-66920000D01*
%TO.N,Net-(Q2-D)*%
X132430000Y-68055000D02*
X132615000Y-67870000D01*
X132430000Y-70400000D02*
X132430000Y-68055000D01*
%TO.N,Net-(D2-K)*%
X138582500Y-74775000D02*
X138450000Y-74642500D01*
X140390000Y-74775000D02*
X138582500Y-74775000D01*
%TO.N,Net-(D7-K)*%
X136855826Y-79835826D02*
X138130000Y-81110000D01*
X136844174Y-79835826D02*
X136855826Y-79835826D01*
%TO.N,+3V3*%
X138170000Y-78510000D02*
X136320000Y-78510000D01*
X136320000Y-78510000D02*
X135140000Y-79690000D01*
X138170000Y-76797500D02*
X138450000Y-76517500D01*
X138170000Y-78510000D02*
X138170000Y-76797500D01*
D29*
%TO.N,/SCL_DISP*%
X146660000Y-82090000D02*
X146660000Y-94930000D01*
X151270000Y-77480000D02*
X146660000Y-82090000D01*
%TO.N,/SDA_DISP*%
X145280000Y-81970000D02*
X150090000Y-77160000D01*
X145280000Y-93130000D02*
X145280000Y-81970000D01*
D28*
%TO.N,Net-(D9-K)*%
X129594139Y-71320687D02*
X128266726Y-69993274D01*
X129745713Y-71320687D02*
X129594139Y-71320687D01*
%TO.N,Net-(Q1-D)*%
X127343274Y-81573274D02*
X127343274Y-80313274D01*
X128130000Y-82360000D02*
X127343274Y-81573274D01*
X130787200Y-82360000D02*
X128130000Y-82360000D01*
X131906800Y-83479600D02*
X130787200Y-82360000D01*
%TO.N,Net-(D8-K)*%
X129851897Y-80138103D02*
X128510000Y-81480000D01*
X129899103Y-80138103D02*
X129851897Y-80138103D01*
%TO.N,+3V3*%
X132086223Y-78812277D02*
X132107700Y-78790800D01*
%TO.N,Net-(D3-K)*%
X133860000Y-78913500D02*
X133982700Y-78790800D01*
%TO.N,Net-(Q1-D)*%
X139296726Y-79943274D02*
X141610000Y-77630000D01*
%TO.N,Net-(D7-K)*%
X138130000Y-81110000D02*
X138051774Y-81110000D01*
%TO.N,Net-(Q1-D)*%
X141610000Y-72138628D02*
X141610000Y-77630000D01*
X139384646Y-69913274D02*
X141610000Y-72138628D01*
X138253274Y-69913274D02*
X139384646Y-69913274D01*
%TO.N,Net-(D6-K)*%
X138178513Y-72321487D02*
X139420000Y-71080000D01*
X138178513Y-72445266D02*
X138178513Y-72321487D01*
%TO.N,Net-(D1-K)*%
X133865000Y-72348600D02*
X133957200Y-72440800D01*
%TO.N,+3V3*%
X128525953Y-72540447D02*
X129950806Y-73965300D01*
X129950806Y-73965300D02*
X131640000Y-73965300D01*
X135140000Y-79690000D02*
X135140000Y-80880000D01*
%TO.N,Net-(D5-K)*%
X136298400Y-76618400D02*
X137120000Y-77440000D01*
X136298400Y-75641200D02*
X136298400Y-76618400D01*
X136340000Y-76360000D02*
X136370000Y-76390000D01*
D30*
%TO.N,+3V3*%
X150740000Y-84910000D02*
X150740000Y-79450000D01*
D28*
X128371600Y-72694800D02*
X128525953Y-72540447D01*
X158030000Y-83910000D02*
X158030000Y-79230000D01*
X137970847Y-76557553D02*
X138125200Y-76403200D01*
%TO.N,GND*%
X135390400Y-84429600D02*
X135400000Y-84420000D01*
X133781800Y-84429600D02*
X135390400Y-84429600D01*
X130198400Y-75641200D02*
X130198400Y-77787902D01*
X130198400Y-77787902D02*
X130210000Y-77799502D01*
D30*
%TO.N,Net-(U1-EN)*%
X142090000Y-83860000D02*
X145890000Y-80060000D01*
X145890000Y-80060000D02*
X145890000Y-68600000D01*
X145890000Y-68600000D02*
X145560000Y-68270000D01*
X145560000Y-68270000D02*
X143660000Y-68270000D01*
D28*
%TO.N,/DisplayButton*%
X139870000Y-88290000D02*
X139870000Y-83510000D01*
X139870000Y-83510000D02*
X143890000Y-79490000D01*
%TO.N,/RED_DRIVER*%
X144805400Y-73405000D02*
X143995000Y-73405000D01*
X143995000Y-73405000D02*
X143460000Y-73940000D01*
%TO.N,/GREEN_DRIVER*%
X144805400Y-74943200D02*
X144276800Y-74943200D01*
X144276800Y-74943200D02*
X143450000Y-75770000D01*
%TO.N,/INT_IMU*%
X157305000Y-89765000D02*
X157305000Y-80625000D01*
X157305000Y-80625000D02*
X157270000Y-80590000D01*
X157600000Y-90060000D02*
X157305000Y-89765000D01*
%TD*%
M02*
