M48
; DRILL file {KiCad 7.0.9} date Tue Dec 19 02:47:06 2023
; FORMAT={-:-/ absolute / inch / decimal}
; #@! TF.CreationDate,2023-12-19T02:47:06+01:00
; #@! TF.GenerationSoftware,Kicad,Pcbnew,7.0.9
; #@! TF.FileFunction,Plated,1,4,PTH
FMAT,2
INCH
; #@! TA.AperFunction,Plated,PTH,ViaDrill
T1C0.0157
; #@! TA.AperFunction,Plated,PTH,ComponentDrill
T2C0.0394
%
G90
G05
T1
X4.7717Y-2.5591
X4.7835Y-2.9413
X4.8878Y-3.4551
X5.0114Y-2.8866
X5.1028Y-3.4386
X5.1055Y-3.2795
X5.1264Y-3.063
X5.1642Y-2.7374
X5.1827Y-2.912
X5.2165Y-2.9642
X5.2969Y-3.6091
X5.3307Y-3.3236
X5.365Y-2.7102
X5.3984Y-3.0488
X5.4047Y-3.228
X5.4268Y-3.3299
X5.4476Y-3.2728
X5.4519Y-2.7039
X5.5067Y-3.476
X5.5264Y-2.5331
X5.5941Y-3.3016
X5.6142Y-3.6091
X5.6476Y-2.9831
X5.648Y-2.911
X5.6559Y-2.6878
X5.665Y-3.1295
X5.7197Y-3.6665
X5.774Y-3.7374
X5.7776Y-2.7823
X5.7776Y-2.8366
X5.7791Y-2.8917
X5.8248Y-2.7299
X5.8248Y-2.9413
X5.8799Y-2.7307
X5.8803Y-2.9413
X5.8945Y-3.3295
X5.9035Y-3.578
X5.9091Y-3.0378
X5.9346Y-3.128
X5.9346Y-3.3429
X5.935Y-2.7315
X5.9354Y-2.9413
X5.9362Y-3.3933
X5.9555Y-3.0504
X5.9866Y-2.7819
X5.9874Y-2.837
X5.9882Y-2.8917
X6.0441Y-3.6358
X6.0992Y-3.6965
X6.1114Y-3.8394
X6.1917Y-3.1728
X6.2047Y-3.5457
X6.2181Y-2.5331
X6.2217Y-3.1193
X6.2217Y-3.3035
X6.2654Y-3.4213
T2
X4.3953Y-3.6996
X4.3953Y-3.7996
X4.3953Y-3.8996
X4.3953Y-3.9996
T0
M30
